HIERARCHY
ROOT Hips
{
	OFFSET 0.00000 0.00000 0.00000
	CHANNELS 6 Xposition Yposition Zposition Zrotation Yrotation Xrotation 
	JOINT LHipJoint
	{
		OFFSET 0 0 0
		CHANNELS 3 Zrotation Yrotation Xrotation
		JOINT LeftUpLeg
		{
			OFFSET 1.52977 -1.71332 0.88991
			CHANNELS 3 Zrotation Yrotation Xrotation
			JOINT LeftLeg
			{
				OFFSET 2.23949 -6.15296 0.00000
				CHANNELS 3 Zrotation Yrotation Xrotation
				JOINT LeftFoot
				{
					OFFSET 2.68396 -7.37412 0.00000
					CHANNELS 3 Zrotation Yrotation Xrotation
					JOINT LeftToeBase
					{
						OFFSET 0.20538 -0.56428 2.52710
						CHANNELS 3 Zrotation Yrotation Xrotation
						End Site
						{
							OFFSET 0.00000 -0.00000 1.29919
						}
					}
				}
			}
		}
	}
	JOINT RHipJoint
	{
		OFFSET 0 0 0
		CHANNELS 3 Zrotation Yrotation Xrotation
		JOINT RightUpLeg
		{
			OFFSET -1.45689 -1.71333 0.88991
			CHANNELS 3 Zrotation Yrotation Xrotation
			JOINT RightLeg
			{
				OFFSET -2.36700 -6.50329 0.00000
				CHANNELS 3 Zrotation Yrotation Xrotation
				JOINT RightFoot
				{
					OFFSET -2.69814 -7.41308 0.00000
					CHANNELS 3 Zrotation Yrotation Xrotation
					JOINT RightToeBase
					{
						OFFSET -0.18734 -0.51471 2.37479
						CHANNELS 3 Zrotation Yrotation Xrotation
						End Site
						{
							OFFSET -0.00000 -0.00000 1.22113
						}
					}
				}
			}
		}
	}
	JOINT LowerBack
	{
		OFFSET 0 0 0
		CHANNELS 3 Zrotation Yrotation Xrotation
		JOINT Spine
		{
			OFFSET 0.04294 2.14638 -0.31163
			CHANNELS 3 Zrotation Yrotation Xrotation
			JOINT Spine1
			{
				OFFSET -0.00400 2.17216 0.01486
				CHANNELS 3 Zrotation Yrotation Xrotation
				JOINT Neck
				{
					OFFSET 0 0 0
					CHANNELS 3 Zrotation Yrotation Xrotation
					JOINT Neck1
					{
						OFFSET 0.03869 1.76598 0.14916
						CHANNELS 3 Zrotation Yrotation Xrotation
						JOINT Head
						{
							OFFSET -0.00760 1.75513 -0.18948
							CHANNELS 3 Zrotation Yrotation Xrotation
							End Site
							{
								OFFSET -0.00601 1.82444 -0.08310
							}
						}
					}
				}
				JOINT LeftShoulder
				{
					OFFSET 0 0 0
					CHANNELS 3 Zrotation Yrotation Xrotation
					JOINT LeftArm
					{
						OFFSET 3.73696 0.92058 0.01733
						CHANNELS 3 Zrotation Yrotation Xrotation
						JOINT LeftForeArm
						{
							OFFSET 5.22771 -0.00000 0.00000
							CHANNELS 3 Zrotation Yrotation Xrotation
							JOINT LeftHand
							{
								OFFSET 3.45251 -0.00000 0.00000
								CHANNELS 3 Zrotation Yrotation Xrotation
								JOINT LeftFingerBase
								{
									OFFSET 0 0 0
									CHANNELS 3 Zrotation Yrotation Xrotation
									JOINT LeftHandIndex1
									{
										OFFSET 0.55212 -0.00000 0.00000
										CHANNELS 3 Zrotation Yrotation Xrotation
										End Site
										{
											OFFSET 0.44513 -0.00000 0.00000
										}
									}
								}
								JOINT LThumb
								{
									OFFSET 0 0 0
									CHANNELS 3 Zrotation Yrotation Xrotation
									End Site
									{
										OFFSET 0.45193 -0.00000 0.45193
									}
								}
							}
						}
					}
				}
				JOINT RightShoulder
				{
					OFFSET 0 0 0
					CHANNELS 3 Zrotation Yrotation Xrotation
					JOINT RightArm
					{
						OFFSET -3.63819 0.83094 -0.13694
						CHANNELS 3 Zrotation Yrotation Xrotation
						JOINT RightForeArm
						{
							OFFSET -5.23980 -0.00000 -0.00000
							CHANNELS 3 Zrotation Yrotation Xrotation
							JOINT RightHand
							{
								OFFSET -3.48042 -0.00000 -0.00000
								CHANNELS 3 Zrotation Yrotation Xrotation
								JOINT RightFingerBase
								{
									OFFSET 0 0 0
									CHANNELS 3 Zrotation Yrotation Xrotation
									JOINT RightHandIndex1
									{
										OFFSET -0.61871 -0.00000 0.00000
										CHANNELS 3 Zrotation Yrotation Xrotation
										End Site
										{
											OFFSET -0.49882 -0.00000 0.00000
										}
									}
								}
								JOINT RThumb
								{
									OFFSET 0 0 0
									CHANNELS 3 Zrotation Yrotation Xrotation
									End Site
									{
										OFFSET -0.50644 -0.00000 0.50644
									}
								}
							}
						}
					}
				}
			}
		}
	}
}
MOTION
Frames: 10
Frame Time: 0.0689655
0.00 0.00 0.00 0 0 0 0 0 0 -21 0 0 0 0 0 0 0 0 0 0 0 0 0 0 21 0 0 0 0 0 0 0 0 0 0 0 0 0 0 0 0 0 0 0 0 0 0 -16 0 0 21 0 0 11 0 0 0 -8 0 0 0 0 0 0 0 0 0 0 0 0 0 0 0 0 0 0 0 0 8 0 0 0 0 0 0 0 0 0 0 0 0 0 0 0 0 0
0.00 0.00 0.00 70.2370 -86.9177 -52.0800 0.0000 0.0000 0.0000 -17.3738 -21.4771 -51.8144 12.3452 18.5328 67.0789 2.3646 10.6247 -34.3756 0.2741 -3.3678 -9.3044 0.0000 0.0000 0.0000 1.2365 8.1300 -70.1935 -18.9514 -19.9736 86.9329 -0.4567 -7.4816 -17.6442 -0.0070 0.5400 -1.4840 -1.1867 -0.5915 29.8047 -1.8388 -1.8800 6.3274 -0.6615 -1.0941 -9.3083 1.8723 0.4301 -4.9437 1.4944 0.1729 -17.0248 0.2007 -0.3762 -4.7898 0.0000 0.0000 0.0000 -82.5341 -10.6809 31.1668 27.6460 -38.7883 -9.9012 -0.0000 0.0000 -27.2625 18.1951 12.9872 4.2246 -7.1250 0.0000 -0.0000 -8.3253 43.4696 0.3168 0.0000 0.0000 0.0000 86.9113 12.7593 26.0414 -26.6303 37.8244 -9.2715 0.0000 -0.0000 -8.3904 -18.9733 -6.1771 2.1186 7.1250 -0.0000 -0.0000 6.5365 -36.4417 1.3829
0.00 0.00 0.00 89.9594 -87.8777 -75.0572 0.0000 0.0000 0.0000 -22.0999 -17.8315 -42.8115 12.4801 18.5863 67.5026 3.2199 11.0110 -39.0168 0.4609 -4.3547 -12.0767 0.0000 0.0000 0.0000 3.9441 12.0437 -78.6737 -14.6947 -19.3114 74.3153 -0.5301 -8.9579 -19.8135 -0.0035 -0.3846 1.0566 -0.9994 -0.6572 32.4080 -1.3844 -2.0094 6.5989 -0.1456 -1.1922 -9.4222 2.3065 0.9229 -4.3298 0.8036 0.7394 -18.5850 -0.1310 -0.1380 -4.8741 0.0000 0.0000 0.0000 -82.4515 -10.3257 30.2326 26.7731 -37.9619 -9.3592 -0.0000 0.0000 -27.0361 18.3674 13.2051 4.3374 -7.1250 0.0000 -0.0000 -8.2169 43.7137 0.2627 0.0000 0.0000 0.0000 86.4367 11.5379 26.3280 -27.7843 38.9169 -9.9879 0.0000 -0.0000 -10.1785 -18.8086 -7.8518 2.6640 7.1250 -0.0000 -0.0000 6.8928 -38.1849 1.1633
0.00 0.00 0.00 75.2724 -87.6394 -60.8713 0.0000 0.0000 0.0000 -23.2770 -16.5415 -40.3913 12.5685 18.6208 67.7797 3.3113 11.0571 -39.4803 0.6487 -5.1522 -14.3433 0.0000 0.0000 0.0000 3.5789 14.0221 -74.8332 -9.3677 -17.0386 57.3534 -0.7219 -6.4021 -19.6304 -0.0977 2.0153 -5.5480 -0.8815 -0.8809 32.5250 -1.2157 -2.2440 6.7606 0.0549 -1.3096 -9.2866 2.2776 0.8852 -4.1630 0.6865 0.6691 -18.8456 -0.1605 -0.1725 -4.9823 -0.0000 0.0000 0.0000 -82.4582 -10.2772 30.3179 26.6055 -37.8004 -9.2563 -0.0000 0.0000 -27.0669 18.2610 13.3648 4.3616 -7.1250 0.0000 -0.0000 -8.3473 43.8670 0.2351 -0.0000 0.0000 0.0000 86.6503 11.1519 26.5231 -27.4642 38.6183 -9.7875 0.0000 -0.0000 -9.8764 -18.8140 -7.8797 2.6742 7.1250 -0.0000 -0.0000 6.8920 -38.2144 1.1582
0.00 0.00 0.00 29.6147 -85.1725 -14.3835 0.0000 0.0000 0.0000 -14.6396 -6.0811 -39.6084 17.8057 19.8842 83.5723 0.4191 -0.5722 -12.0426 2.4862 -9.8127 -28.3723 0.0000 0.0000 0.0000 3.5251 19.2171 -70.6931 -12.2360 -18.4887 66.7351 -0.7272 -1.8961 -16.9032 -0.0768 -1.7877 4.9194 0.1234 -1.6547 31.3602 -0.8302 -2.7578 6.8111 0.0801 -1.5347 -9.5121 2.1839 0.3946 -3.8999 1.6602 0.1702 -18.6627 0.1728 -0.4546 -4.9746 -0.0000 -0.0000 0.0000 -82.8270 -7.7368 27.6095 24.9401 -36.1427 -8.2545 -0.0000 0.0000 -26.5512 17.2785 13.1990 4.0626 -7.1250 0.0000 -0.0000 -9.1945 43.5878 0.3233 -0.0000 -0.0000 0.0000 87.3526 10.3252 27.6631 -24.7514 35.9488 -8.1435 0.0000 -0.0000 -7.5214 -17.8300 -7.2375 2.3204 7.1250 -0.0000 -0.0000 7.6357 -37.4797 1.4233
0.00 0.00 0.00 21.6420 -85.0905 -6.5484 0.0000 0.0000 0.0000 -10.2126 -7.9157 -44.6692 20.4462 19.9952 91.3047 0.0349 -0.4439 3.7214 1.0869 -6.6259 -18.6117 0.0000 0.0000 0.0000 5.1335 20.6125 -68.9758 -13.0298 -18.7929 69.2181 -0.9453 -2.5814 -19.4692 -0.1429 -2.4361 6.7124 0.8103 -1.8673 31.7564 -0.8327 -2.8147 6.8407 -0.2856 -1.5776 -9.6965 2.0429 0.3725 -3.8846 1.9149 0.1874 -18.4035 0.2736 -0.4399 -4.8967 -0.0000 -0.0000 0.0000 -82.2880 -7.6194 27.0391 25.2007 -36.4084 -8.4087 -0.0000 0.0000 -26.2798 17.1360 13.2488 4.0420 -7.1250 0.0000 -0.0000 -9.3336 43.6232 0.3201 -0.0000 -0.0000 0.0000 87.2665 10.1976 28.2311 -25.6950 36.9059 -8.7038 0.0000 -0.0000 -8.3647 -18.1511 -7.4032 2.4189 7.1250 -0.0000 -0.0000 7.3878 -37.6727 1.3413
0.00 0.00 0.00 17.9807 -83.7441 -4.9337 0.0000 0.0000 0.0000 -3.6092 -13.2024 -65.7986 23.6289 19.6813 100.6647 0.1595 -3.9824 -7.2068 0.9452 -6.1919 -17.3421 0.0000 0.0000 0.0000 9.1992 24.1565 -61.9352 -16.1076 -19.6328 78.5521 -2.4117 -4.7458 -31.3156 -0.0286 -1.0921 3.0023 1.1427 -2.0134 34.1157 -0.9831 -2.9466 6.7892 -0.4752 -1.6612 -9.9384 1.4595 0.1292 -3.9287 2.5251 -0.0438 -17.2189 0.6367 -0.5032 -5.0635 -0.0000 0.0000 0.0000 -81.1064 -8.7265 25.6724 26.3375 -37.5400 -9.0925 -0.0000 0.0000 -27.0856 18.3537 13.7584 4.5114 -7.1250 0.0000 -0.0000 -8.3501 44.2842 0.1486 -0.0000 0.0000 0.0000 85.0144 10.0645 29.5639 -28.9275 39.9562 -10.7141 0.0000 -0.0000 -11.5767 -18.6584 -7.9178 2.6632 7.1250 -0.0000 -0.0000 7.0299 -38.2434 1.1766
0.00 0.00 0.00 19.2451 -84.5429 -8.1254 0.0000 0.0000 0.0000 -9.0636 -14.8097 -73.1009 8.5575 16.5144 54.5469 0.6061 0.4558 -14.8815 1.4054 -7.4987 -21.2015 0.0000 0.0000 0.0000 17.1931 19.8749 -52.0254 -18.9601 -19.9741 86.9584 -4.0976 -3.6227 -39.6722 -0.1587 2.5667 -7.0746 0.0811 -1.3013 35.0766 -1.0629 -2.4763 6.8622 -0.1516 -1.4375 -10.1778 1.2177 0.0938 -3.9691 3.0579 -0.0172 -16.8928 0.8567 -0.4879 -4.9332 -0.0000 0.0000 0.0000 -81.2511 -8.3164 27.5655 27.8844 -39.0096 -10.0508 -0.0000 0.0000 -27.0677 18.2631 13.3176 4.3470 -7.1250 0.0000 -0.0000 -8.3351 43.8185 0.2448 -0.0000 0.0000 0.0000 85.4179 10.0468 29.8558 -29.2443 40.2368 -10.9182 0.0000 -0.0000 -11.9434 -18.9135 -8.0217 2.7375 7.1250 -0.0000 -0.0000 6.8273 -38.3699 1.1210
0.00 0.00 0.00 83.6208 -87.9467 -70.6449 0.0000 0.0000 0.0000 -9.0544 -17.1598 -69.6921 10.3359 17.5945 60.6053 0.2446 -4.5013 -8.8706 0.1615 -2.5888 -7.1361 0.0000 0.0000 0.0000 14.3736 13.7497 -43.1905 -20.7341 -19.9871 92.1469 -2.2362 4.8313 -27.2007 -1.5108 7.7627 -21.9956 -0.7778 -0.3973 33.1604 -1.8265 -1.6961 6.5775 -0.8339 -1.0571 -9.7637 1.6416 0.6553 -4.5519 2.1303 0.6056 -16.3701 0.4403 -0.1480 -4.6219 0.0000 0.0000 0.0000 -80.9682 -8.2750 26.6898 25.6374 -36.8484 -8.6693 -0.0000 0.0000 -26.9087 18.5183 13.2187 4.3799 -7.1250 0.0000 -0.0000 -8.0837 43.7446 0.2522 0.0000 0.0000 0.0000 86.6682 8.8436 29.8633 -27.0440 38.2212 -9.5264 0.0000 -0.0000 -9.8033 -19.5811 -6.6725 2.3668 7.1250 -0.0000 -0.0000 6.0859 -36.9974 1.2036
0.00 0.00 0.00 81.8456 -88.2241 -68.5063 0.0000 0.0000 0.0000 -10.1723 -18.1954 -66.6945 11.3037 18.0805 63.7639 0.3888 -4.2565 -11.0905 0.0001 0.0759 0.2086 0.0000 0.0000 0.0000 12.1414 13.3909 -42.0125 -21.1811 -19.9665 93.4552 -0.4881 4.6190 -12.4307 -1.0216 6.4300 -18.0371 -0.3950 -0.5145 33.0182 -1.6171 -1.6820 6.5929 -0.8247 -1.0572 -9.6925 2.2082 0.6650 -4.6196 1.5069 0.5188 -16.7177 0.1348 -0.2126 -4.7351 0.0000 0.0000 0.0000 -81.2346 -8.0219 26.4170 25.4364 -36.6467 -8.5490 -0.0000 0.0000 -27.1813 18.4419 13.1863 4.3501 -7.1250 0.0000 -0.0000 -8.1457 43.7025 0.2627 0.0000 0.0000 0.0000 86.7423 9.3232 29.1949 -25.3716 36.5814 -8.5104 0.0000 -0.0000 -8.1337 -19.5730 -6.9397 2.4599 7.1250 -0.0000 -0.0000 6.1251 -37.2782 1.1692
